<svg xmlns="http://www.w3.org/2000/svg" width="256" height="256" viewBox="0 0 256 256" role="img" aria-labelledby="title desc">
  <title id="title">Tratamento de Escoliose</title>
  <desc id="desc">Ícone SVG separado para o card Tratamento de Escoliose — categoria Saúde da Coluna.</desc>
  <defs>
    <filter id="shadow" x="-20%" y="-20%" width="140%" height="140%">
      <feDropShadow dx="0" dy="8" stdDeviation="7" flood-color="#0A6073" flood-opacity="0.15"/>
    </filter>
    <linearGradient id="aqua" x1="40" y1="40" x2="210" y2="210" gradientUnits="userSpaceOnUse">
      <stop offset="0" stop-color="#9FD2DB" stop-opacity="0.42"/>
      <stop offset="1" stop-color="#DCEFF2" stop-opacity="0.08"/>
    </linearGradient>
  </defs>
  <style>
    .bp { fill:none; stroke:#6FB7C5; stroke-width:2; stroke-linecap:round; vector-effect:non-scaling-stroke; }
    .fine { stroke-width:1.35; }
    .outline { fill:none; stroke:#0A6073; stroke-width:5.3; stroke-linecap:round; stroke-linejoin:round; vector-effect:non-scaling-stroke; }
    .mid { fill:none; stroke:#0A6073; stroke-width:3.8; stroke-linecap:round; stroke-linejoin:round; vector-effect:non-scaling-stroke; }
    .thin { fill:none; stroke:#0A6073; stroke-width:2.5; stroke-linecap:round; stroke-linejoin:round; vector-effect:non-scaling-stroke; }
    .soft { fill:none; stroke:#6FB7C5; stroke-width:3; stroke-linecap:round; stroke-linejoin:round; vector-effect:non-scaling-stroke; }
    .softfill { fill:#B7DCE3; opacity:.42; }
    .accent { fill:none; stroke:#D5923D; stroke-width:4.4; stroke-linecap:round; stroke-linejoin:round; vector-effect:non-scaling-stroke; }
    .accentThin { fill:none; stroke:#D5923D; stroke-width:2.8; stroke-linecap:round; stroke-linejoin:round; vector-effect:non-scaling-stroke; }
    .fillPrimary { fill:#0A6073; }
    .fillAccent { fill:#D5923D; }
    .fillAccent2 { fill:#F0B45B; }
    .white { fill:#F7FEFF; }
  </style>
  <rect width="256" height="256" fill="none"/>
  
    <g class="blueprint" opacity="0.95">
      <circle class="bp" cx="128" cy="96" r="58"/>
      <circle class="bp fine" cx="128" cy="96" r="34" opacity="0.35"/>
      <path class="bp fine" d="M128 24V172 M56 96H200 M77 45L179 147 M179 45L77 147" opacity="0.32"/>
      <path class="bp fine" d="M52 120 C76 110 99 109 128 118 C154 126 180 125 205 112" opacity="0.22"/>
      <path class="bp fine" d="M64 70 C93 63 121 67 150 80 C172 90 188 90 205 82" opacity="0.18"/>
    </g>
  <g filter="url(#shadow)">
    
      <path class="outline" d="M128 46 C99 63 153 85 123 109 C94 132 151 149 114 181"/>
      <circle class="fillAccent" cx="129" cy="54" r="4.5"/><circle class="fillAccent" cx="118" cy="72" r="4.5"/><circle class="fillAccent" cx="139" cy="93" r="4.5"/><circle class="fillAccent" cx="117" cy="116" r="4.5"/><circle class="fillAccent" cx="137" cy="139" r="4.5"/><circle class="fillAccent" cx="116" cy="163" r="4.5"/>
      <path class="accent" d="M72 84 C86 70 100 67 116 73"/><path class="accentThin" transform="translate(116 73) rotate(8)" d="M-8 -6 L0 0 L-8 6"/>
      <path class="accent" d="M181 147 C162 162 144 164 126 157"/><path class="accentThin" transform="translate(126 157) rotate(188)" d="M-8 -6 L0 0 L-8 6"/>
      <path class="mid" d="M86 51 C62 83 62 139 86 171 M169 51 C194 83 194 139 169 171" opacity=".55"/>
      <path class="thin" d="M91 52 L83 63 M91 170 L83 159 M164 52 L173 63 M164 170 L173 159" opacity=".55"/>
    
  </g>
</svg>