<svg xmlns="http://www.w3.org/2000/svg" width="256" height="256" viewBox="0 0 256 256" role="img" aria-labelledby="title desc">
  <title id="title">Traumatologia Geral</title>
  <desc id="desc">Ícone SVG separado para o card Traumatologia Geral — categoria Ortopedia e Especialidades.</desc>
  <defs>
    <filter id="shadow" x="-20%" y="-20%" width="140%" height="140%">
      <feDropShadow dx="0" dy="8" stdDeviation="7" flood-color="#0A6073" flood-opacity="0.15"/>
    </filter>
    <linearGradient id="aqua" x1="40" y1="40" x2="210" y2="210" gradientUnits="userSpaceOnUse">
      <stop offset="0" stop-color="#9FD2DB" stop-opacity="0.42"/>
      <stop offset="1" stop-color="#DCEFF2" stop-opacity="0.08"/>
    </linearGradient>
  </defs>
  <style>
    .bp { fill:none; stroke:#6FB7C5; stroke-width:2; stroke-linecap:round; vector-effect:non-scaling-stroke; }
    .fine { stroke-width:1.35; }
    .outline { fill:none; stroke:#0A6073; stroke-width:5.3; stroke-linecap:round; stroke-linejoin:round; vector-effect:non-scaling-stroke; }
    .mid { fill:none; stroke:#0A6073; stroke-width:3.8; stroke-linecap:round; stroke-linejoin:round; vector-effect:non-scaling-stroke; }
    .thin { fill:none; stroke:#0A6073; stroke-width:2.5; stroke-linecap:round; stroke-linejoin:round; vector-effect:non-scaling-stroke; }
    .soft { fill:none; stroke:#6FB7C5; stroke-width:3; stroke-linecap:round; stroke-linejoin:round; vector-effect:non-scaling-stroke; }
    .softfill { fill:#B7DCE3; opacity:.42; }
    .accent { fill:none; stroke:#D5923D; stroke-width:4.4; stroke-linecap:round; stroke-linejoin:round; vector-effect:non-scaling-stroke; }
    .accentThin { fill:none; stroke:#D5923D; stroke-width:2.8; stroke-linecap:round; stroke-linejoin:round; vector-effect:non-scaling-stroke; }
    .fillPrimary { fill:#0A6073; }
    .fillAccent { fill:#D5923D; }
    .fillAccent2 { fill:#F0B45B; }
    .white { fill:#F7FEFF; }
  </style>
  <rect width="256" height="256" fill="none"/>
  
    <g class="blueprint" opacity="0.95">
      <circle class="bp" cx="128" cy="96" r="58"/>
      <circle class="bp fine" cx="128" cy="96" r="34" opacity="0.35"/>
      <path class="bp fine" d="M128 24V172 M56 96H200 M77 45L179 147 M179 45L77 147" opacity="0.32"/>
      <path class="bp fine" d="M52 120 C76 110 99 109 128 118 C154 126 180 125 205 112" opacity="0.22"/>
      <path class="bp fine" d="M64 70 C93 63 121 67 150 80 C172 90 188 90 205 82" opacity="0.18"/>
    </g>
  <g filter="url(#shadow)">
    
      <path class="outline" d="M92 70 C107 89 119 99 131 105 C139 109 147 115 151 127"/>
      <path class="outline" d="M168 72 C157 91 150 108 151 127 C152 145 164 156 181 165"/>
      <path class="mid" d="M111 72 C117 91 131 96 145 92 C156 89 162 81 164 70"/>
      <circle class="white" cx="151" cy="127" r="13"/><circle class="mid" cx="151" cy="127" r="13"/>
      <path class="outline" d="M143 137 L129 171"/>
      <path class="mid" d="M130 171 C119 169 111 176 105 188"/>
      <path class="soft" d="M87 136 C105 154 119 158 137 154" opacity=".65"/>
      <path class="accent" d="M171 69 L171 107 M152 88 H190"/><path class="accentThin" d="M82 159 L99 142"/>
    
  </g>
</svg>