<svg xmlns="http://www.w3.org/2000/svg" width="256" height="256" viewBox="0 0 256 256" role="img" aria-labelledby="title desc">
  <title id="title">Avaliação Clínica Criteriosa</title>
  <desc id="desc">Ícone SVG separado para o card Avaliação Clínica Criteriosa — categoria Cuidado Infectológico.</desc>
  <defs>
    <filter id="shadow" x="-20%" y="-20%" width="140%" height="140%">
      <feDropShadow dx="0" dy="8" stdDeviation="7" flood-color="#0A6073" flood-opacity="0.15"/>
    </filter>
    <linearGradient id="aqua" x1="40" y1="40" x2="210" y2="210" gradientUnits="userSpaceOnUse">
      <stop offset="0" stop-color="#9FD2DB" stop-opacity="0.42"/>
      <stop offset="1" stop-color="#DCEFF2" stop-opacity="0.08"/>
    </linearGradient>
  </defs>
  <style>
    .bp { fill:none; stroke:#6FB7C5; stroke-width:2; stroke-linecap:round; vector-effect:non-scaling-stroke; }
    .fine { stroke-width:1.35; }
    .outline { fill:none; stroke:#0A6073; stroke-width:5.3; stroke-linecap:round; stroke-linejoin:round; vector-effect:non-scaling-stroke; }
    .mid { fill:none; stroke:#0A6073; stroke-width:3.8; stroke-linecap:round; stroke-linejoin:round; vector-effect:non-scaling-stroke; }
    .thin { fill:none; stroke:#0A6073; stroke-width:2.5; stroke-linecap:round; stroke-linejoin:round; vector-effect:non-scaling-stroke; }
    .soft { fill:none; stroke:#6FB7C5; stroke-width:3; stroke-linecap:round; stroke-linejoin:round; vector-effect:non-scaling-stroke; }
    .softfill { fill:#B7DCE3; opacity:.42; }
    .accent { fill:none; stroke:#D5923D; stroke-width:4.4; stroke-linecap:round; stroke-linejoin:round; vector-effect:non-scaling-stroke; }
    .accentThin { fill:none; stroke:#D5923D; stroke-width:2.8; stroke-linecap:round; stroke-linejoin:round; vector-effect:non-scaling-stroke; }
    .fillPrimary { fill:#0A6073; }
    .fillAccent { fill:#D5923D; }
    .fillAccent2 { fill:#F0B45B; }
    .white { fill:#F7FEFF; }
  </style>
  <rect width="256" height="256" fill="none"/>
  
    <g class="blueprint" opacity="0.95">
      <circle class="bp" cx="128" cy="96" r="58"/>
      <circle class="bp fine" cx="128" cy="96" r="34" opacity="0.35"/>
      <path class="bp fine" d="M128 24V172 M56 96H200 M77 45L179 147 M179 45L77 147" opacity="0.32"/>
      <path class="bp fine" d="M52 120 C76 110 99 109 128 118 C154 126 180 125 205 112" opacity="0.22"/>
      <path class="bp fine" d="M64 70 C93 63 121 67 150 80 C172 90 188 90 205 82" opacity="0.18"/>
    </g>
  <g filter="url(#shadow)">
    
      <circle class="white" cx="78" cy="78" r="9"/><circle class="thin" cx="78" cy="78" r="9"/><path class="thin" d="M63 78 H69 M87 78 H93 M78 63 V69 M78 87 V93" opacity=".6"/><circle class="white" cx="102" cy="66" r="6"/><circle class="thin" cx="102" cy="66" r="6"/><path class="thin" d="M90 66 H96 M108 66 H114 M102 54 V60 M102 72 V78" opacity=".6"/><circle class="white" cx="119" cy="88" r="8"/><circle class="thin" cx="119" cy="88" r="8"/><path class="thin" d="M105 88 H111 M127 88 H133 M119 74 V80 M119 96 V102" opacity=".6"/><circle class="white" cx="82" cy="121" r="7"/><circle class="thin" cx="82" cy="121" r="7"/><path class="thin" d="M69 121 H75 M89 121 H95 M82 108 V114 M82 128 V134" opacity=".6"/><circle class="white" cx="112" cy="132" r="9"/><circle class="thin" cx="112" cy="132" r="9"/><path class="thin" d="M97 132 H103 M121 132 H127 M112 117 V123 M112 141 V147" opacity=".6"/><circle class="white" cx="140" cy="115" r="6"/><circle class="thin" cx="140" cy="115" r="6"/><path class="thin" d="M128 115 H134 M146 115 H152 M140 103 V109 M140 121 V127" opacity=".6"/>
      <path class="thin" d="M76 160 H113 V190 H76 Z M137 160 H174 V190 H137 Z M106 108 H143 V138 H106 Z M106 108 L94 160 M143 108 L156 160 M125 138 V160" opacity=".82"/><path class="soft" d="M76 190 H174" opacity=".7"/>
      <circle class="accentThin" cx="166" cy="102" r="22"/><path class="accent" d="M182 118 L199 135"/><path class="accentThin" d="M155 102 L164 111 L178 93"/>
    
  </g>
</svg>