<svg xmlns="http://www.w3.org/2000/svg" width="256" height="256" viewBox="0 0 256 256" role="img" aria-labelledby="title desc">
  <title id="title">Artrodeses (Estabilização)</title>
  <desc id="desc">Ícone SVG separado para o card Artrodeses (Estabilização) — categoria Saúde da Coluna.</desc>
  <defs>
    <filter id="shadow" x="-20%" y="-20%" width="140%" height="140%">
      <feDropShadow dx="0" dy="8" stdDeviation="7" flood-color="#0A6073" flood-opacity="0.15"/>
    </filter>
    <linearGradient id="aqua" x1="40" y1="40" x2="210" y2="210" gradientUnits="userSpaceOnUse">
      <stop offset="0" stop-color="#9FD2DB" stop-opacity="0.42"/>
      <stop offset="1" stop-color="#DCEFF2" stop-opacity="0.08"/>
    </linearGradient>
  </defs>
  <style>
    .bp { fill:none; stroke:#6FB7C5; stroke-width:2; stroke-linecap:round; vector-effect:non-scaling-stroke; }
    .fine { stroke-width:1.35; }
    .outline { fill:none; stroke:#0A6073; stroke-width:5.3; stroke-linecap:round; stroke-linejoin:round; vector-effect:non-scaling-stroke; }
    .mid { fill:none; stroke:#0A6073; stroke-width:3.8; stroke-linecap:round; stroke-linejoin:round; vector-effect:non-scaling-stroke; }
    .thin { fill:none; stroke:#0A6073; stroke-width:2.5; stroke-linecap:round; stroke-linejoin:round; vector-effect:non-scaling-stroke; }
    .soft { fill:none; stroke:#6FB7C5; stroke-width:3; stroke-linecap:round; stroke-linejoin:round; vector-effect:non-scaling-stroke; }
    .softfill { fill:#B7DCE3; opacity:.42; }
    .accent { fill:none; stroke:#D5923D; stroke-width:4.4; stroke-linecap:round; stroke-linejoin:round; vector-effect:non-scaling-stroke; }
    .accentThin { fill:none; stroke:#D5923D; stroke-width:2.8; stroke-linecap:round; stroke-linejoin:round; vector-effect:non-scaling-stroke; }
    .fillPrimary { fill:#0A6073; }
    .fillAccent { fill:#D5923D; }
    .fillAccent2 { fill:#F0B45B; }
    .white { fill:#F7FEFF; }
  </style>
  <rect width="256" height="256" fill="none"/>
  
    <g class="blueprint" opacity="0.95">
      <circle class="bp" cx="128" cy="96" r="58"/>
      <circle class="bp fine" cx="128" cy="96" r="34" opacity="0.35"/>
      <path class="bp fine" d="M128 24V172 M56 96H200 M77 45L179 147 M179 45L77 147" opacity="0.32"/>
      <path class="bp fine" d="M52 120 C76 110 99 109 128 118 C154 126 180 125 205 112" opacity="0.22"/>
      <path class="bp fine" d="M64 70 C93 63 121 67 150 80 C172 90 188 90 205 82" opacity="0.18"/>
    </g>
  <g filter="url(#shadow)">
    
      <path class="outline" d="M126 43 C107 67 146 81 125 105 C104 129 143 138 119 160"/>
      <rect class="white" x="112" y="49" width="35" height="17" rx="7" transform="rotate(-7 128 57.5)"/><rect class="accentThin" x="112" y="49" width="35" height="17" rx="7" transform="rotate(-7 128 57.5)"/><rect class="white" x="116" y="70" width="35" height="17" rx="7" transform="rotate(8 128 78.5)"/><rect class="accentThin" x="116" y="70" width="35" height="17" rx="7" transform="rotate(8 128 78.5)"/><rect class="white" x="111" y="92" width="35" height="17" rx="7" transform="rotate(-6 128 100.5)"/><rect class="accentThin" x="111" y="92" width="35" height="17" rx="7" transform="rotate(-6 128 100.5)"/><rect class="white" x="117" y="114" width="35" height="17" rx="7" transform="rotate(7 128 122.5)"/><rect class="accentThin" x="117" y="114" width="35" height="17" rx="7" transform="rotate(7 128 122.5)"/><rect class="white" x="112" y="136" width="35" height="17" rx="7" transform="rotate(-5 128 144.5)"/><rect class="accentThin" x="112" y="136" width="35" height="17" rx="7" transform="rotate(-5 128 144.5)"/>
      <path class="mid" d="M104 54 L104 140 M156 54 L156 140"/>
      <circle class="fillPrimary" cx="104" cy="58" r="4"/><circle class="white" cx="104" cy="58" r="1.5"/><circle class="fillPrimary" cx="104" cy="83" r="4"/><circle class="white" cx="104" cy="83" r="1.5"/><circle class="fillPrimary" cx="104" cy="108" r="4"/><circle class="white" cx="104" cy="108" r="1.5"/><circle class="fillPrimary" cx="104" cy="133" r="4"/><circle class="white" cx="104" cy="133" r="1.5"/><circle class="fillPrimary" cx="156" cy="58" r="4"/><circle class="white" cx="156" cy="58" r="1.5"/><circle class="fillPrimary" cx="156" cy="83" r="4"/><circle class="white" cx="156" cy="83" r="1.5"/><circle class="fillPrimary" cx="156" cy="108" r="4"/><circle class="white" cx="156" cy="108" r="1.5"/><circle class="fillPrimary" cx="156" cy="133" r="4"/><circle class="white" cx="156" cy="133" r="1.5"/>
      <path class="accent" d="M104 83 L156 108 M156 83 L104 108" opacity=".9"/>
      <path class="soft" d="M88 160 C111 174 147 174 171 160"/>
    
  </g>
</svg>